<svg xmlns="http://www.w3.org/2000/svg" version="1.1" xmlns:xlink="http://www.w3.org/1999/xlink" xmlns:svgjs="http://svgjs.com/svgjs" width="24" height="24" x="0" y="0" viewBox="0 0 24 24" style="enable-background:new 0 0 512 512" xml:space="preserve" class=""><circle r="12" cx="12" cy="12" fill="#ffffff" shape="circle"></circle><g transform="matrix(0.7,0,0,0.7,3.497308158874512,3.6704699993133545)"><path fill="#338099" fill-rule="evenodd" d="M20.614 5.649a1 1 0 0 1 .084 1.422L10.184 18.74a1 1 0 0 1-1.428.058l-6.084-5.727a1.008 1.008 0 0 1-.09-1.36 1.008 1.008 0 0 1 1.455-.126l4.72 4.246a1 1 0 0 0 1.412-.074l9.043-10.027a1 1 0 0 1 1.402-.082z" clip-rule="evenodd" data-original="#000000" class=""></path></g></svg>